<svg xmlns="http://www.w3.org/2000/svg" viewBox="0 0 64 64" fill="none">
  <rect x="4" y="4" width="56" height="56" rx="14" fill="#232C3D" />
  <path d="M32 16c-8.836 0-16 6.716-16 15 0 2.976.906 5.788 2.476 8.188l-1.64 6.324a1.2 1.2 0 0 0 1.472 1.46l6.152-1.584A15.84 15.84 0 0 0 32 46c8.836 0 16-6.716 16-15S40.836 16 32 16Zm-3.6 10a2.4 2.4 0 1 1 0 4.8 2.4 2.4 0 0 1 0-4.8Zm7.2 12.8h-8a1.2 1.2 0 0 1 0-2.4h8a1.2 1.2 0 0 1 0 2.4Zm2.4-6.4h-8a1.2 1.2 0 0 1 0-2.4h8a1.2 1.2 0 0 1 0 2.4Z" fill="#F4B23C" />
</svg>
